<svg xmlns="http://www.w3.org/2000/svg" width="551" height="569.093" viewBox="0 0 413.25 426.82"><defs><clipPath id="a"><path d="M0 339h413.25v2H0Zm0 0"/></clipPath><clipPath id="b"><path d="M57 384h299v42.82H57Zm0 0"/></clipPath><clipPath id="c"><path d="M262 296h9v63h-9zm0 0"/></clipPath><clipPath id="d"><path d="M262.223 358.117c.175-.625 8.625-61.488 8.652-61.699-.027.21-8.477 61.074-8.652 61.7m8.652-61.7"/></clipPath></defs><path fill="#e8e8e6" d="m49.262 273.848-.14-6.375c-.048-2.102-.114-4.184-.134-6.258l.274.273c-4.98.051-9.965.16-14.946.164l-14.949.063.5-.5-.055 12.633-.445-.446c2.465.02 4.926.008 7.399.059l7.433.11 15.063.277m0 0-14.832.28-7.516.11c-2.508.051-5.031.04-7.547.059h-.445v-.45l-.055-12.632-.004-.5h.504l14.95.066c4.98.004 9.964.11 14.945.16l.277.004-.004.27c-.02 2.14-.086 4.27-.129 6.375l-.144 6.258M32.586 289.777l-.14-6.375c-.048-2.101-.114-4.183-.133-6.257l.273.273c-4.984.05-9.965.16-14.95.164l-14.948.063.5-.5-.051 12.632-.45-.441c2.47.016 4.93.004 7.403.05l7.433.114Zm0 0-14.832.282-7.516.113c-2.511.047-5.031.035-7.55.055h-.442l-.004-.45-.054-12.632v-.5l.5.004 14.949.062c4.984.004 9.965.11 14.949.164h.273v.27c-.02 2.14-.086 4.27-.132 6.379l-.141 6.253M32.586 16.418l-.14-6.375c-.048-2.102-.114-4.188-.133-6.258l.273.274c-4.984.05-9.965.16-14.95.164l-14.948.062.5-.5-.051 12.633-.45-.445c2.47.015 4.93.007 7.403.054l7.433.114zm0 0-14.832.277-7.516.114c-2.511.046-5.031.039-7.55.054l-.442.004-.004-.449-.054-12.633v-.5h.5l14.949.063c4.984.007 9.965.113 14.949.164l.273.004v.27c-.02 2.14-.086 4.269-.132 6.374l-.141 6.258M410.563 16.418l-.141-6.375c-.047-2.102-.113-4.188-.133-6.258l.274.274c-4.985.05-9.965.16-14.95.164l-14.945.062.496-.5-.05 12.633-.446-.445c2.465.015 4.926.007 7.398.054l7.434.114Zm0 0-14.833.277-7.515.114c-2.512.046-5.031.039-7.547.054l-.445.004v-.449l-.055-12.633-.004-.5h.504l14.945.063c4.985.007 9.965.113 14.95.164l.277.004-.004.27c-.02 2.14-.086 4.269-.133 6.374l-.14 6.258M393.887 32.348l-.145-6.375c-.043-2.102-.11-4.188-.129-6.258l.274.273c-4.985.051-9.965.16-14.95.164l-14.949.063.5-.5-.05 12.633-.45-.446c2.469.02 4.93.008 7.403.055l7.43.113zm0 0-14.832.28-7.516.11c-2.512.047-5.031.04-7.55.055l-.442.004-.004-.45-.055-12.632v-.5h.5l14.95.062c4.984.008 9.964.114 14.949.164l.273.004-.004.27c-.016 2.14-.082 4.27-.129 6.375l-.14 6.258M317.316 180.14l-.14-6.374c-.043-2.102-.113-4.184-.13-6.258l.27.273c-4.98.051-9.964.16-14.949.164l-14.945.063.5-.5-.055 12.633-.445-.446c2.465.02 4.926.008 7.398.055l7.434.113zm0 0-14.832.282-7.515.11c-2.508.046-5.031.038-7.547.058h-.445v-.45l-.055-12.632v-.5h.5l14.945.062c4.985.008 9.969.114 14.95.164l.277.004-.004.27c-.02 2.14-.086 4.27-.13 6.375l-.144 6.258M300.64 196.07l-.144-6.375c-.043-2.101-.11-4.183-.129-6.257l.274.273c-4.985.05-9.965.16-14.95.164l-14.949.063.5-.5-.055 12.632-.445-.445c2.469.02 4.93.008 7.403.055l7.433.113zm0 0-14.831.282-7.516.109c-2.512.05-5.031.039-7.55.059h-.442v-.45l-.055-12.632-.004-.5h.5l14.95.066c4.984.004 9.964.11 14.949.16l.273.004v.27c-.02 2.14-.086 4.27-.133 6.375l-.14 6.257M284.027 180.14l-.14-6.374c-.043-2.102-.114-4.184-.13-6.258l.27.273c-4.98.051-9.965.16-14.945.164l-14.95.063.5-.5-.054 12.633-.445-.446c2.465.02 4.926.008 7.398.055l7.434.113zm0 0-14.832.282-7.511.11c-2.512.046-5.036.038-7.551.058h-.446v-.45l-.054-12.632v-.5h.5l14.949.062c4.98.008 9.965.114 14.945.164l.278.004-.004.27c-.02 2.14-.086 4.27-.13 6.375l-.144 6.258M410.563 289.777l-.141-6.375c-.047-2.101-.113-4.183-.133-6.257l.274.273c-4.985.05-9.965.16-14.95.164l-14.945.063.496-.5-.05 12.632-.446-.441c2.465.016 4.926.004 7.398.05l7.434.114Zm0 0-14.833.282-7.515.113c-2.512.047-5.031.035-7.547.055h-.445v-.45l-.055-12.632-.004-.5.504.004 14.945.062c4.985.004 9.965.11 14.95.164h.277l-.004.27c-.02 2.14-.086 4.27-.133 6.379l-.14 6.253M156.55 53.984l-.14-6.375c-.047-2.101-.113-4.183-.133-6.257l.274.273c-4.98.05-9.965.16-14.946.164l-14.949.063.5-.5-.054 12.632-.446-.445c2.465.02 4.926.008 7.399.055l7.433.113zm0 0-14.831.282-7.516.113c-2.508.047-5.031.035-7.547.055h-.445v-.45l-.055-12.632-.004-.5h.504l14.95.062c4.98.008 9.964.113 14.945.164l.277.004-.004.27c-.02 2.14-.086 4.27-.129 6.375l-.144 6.257M370.398 130.629a9.141 9.141 0 0 1-12.378-3.738c-2.387-4.454-.72-10 3.734-12.387 4.45-2.387 10.004-.711 12.39 3.738 2.387 4.453.708 9.996-3.746 12.387zm9.454 7.047 5.886-9.488-2.906-1.801c-.855-.532-1.316-1.496-1.23-2.5.046-.551.062-1.11.05-1.668a2.643 2.643 0 0 1 1.387-2.41l3.012-1.618-5.281-9.843-3.012 1.613c-.883.476-1.95.394-2.774-.18a17.18 17.18 0 0 0-1.421-.879 2.656 2.656 0 0 1-1.399-2.406l.11-3.418-11.165-.348-.101 3.43c-.031 1.008-.649 1.883-1.559 2.313-.246.113-.488.238-.734.367-.242.133-.48.265-.711.406-.86.52-1.926.55-2.774.023l-2.93-1.816-5.886 9.492 2.91 1.809a2.647 2.647 0 0 1 1.23 2.5 15.68 15.68 0 0 0-.054 1.66 2.65 2.65 0 0 1-1.387 2.41l-3.011 1.613 5.28 9.848 3.013-1.617a2.652 2.652 0 0 1 2.773.18c.457.316.93.605 1.414.87.883.485 1.434 1.403 1.402 2.41l-.105 3.427 11.164.343.105-3.425c.032-1 .645-1.875 1.551-2.301a16.039 16.039 0 0 0 1.457-.781c.86-.52 1.93-.551 2.785-.02l2.91 1.805M48.703 238.164a9.137 9.137 0 0 1-12.379-3.734c-2.386-4.453-.719-10 3.735-12.387 4.449-2.387 10.004-.711 12.39 3.738 2.387 4.453.707 9.996-3.746 12.383m9.453 7.05 5.887-9.491-2.906-1.801a2.651 2.651 0 0 1-1.235-2.496c.051-.555.067-1.11.055-1.668a2.643 2.643 0 0 1 1.387-2.41l3.011-1.618-5.28-9.843-3.013 1.613a2.643 2.643 0 0 1-2.773-.18c-.457-.316-.934-.61-1.422-.879a2.649 2.649 0 0 1-1.398-2.406l.11-3.418-11.165-.347-.102 3.43c-.03 1.003-.648 1.882-1.558 2.312-.246.113-.492.238-.734.367-.243.133-.48.266-.715.406-.856.52-1.922.55-2.774.024l-2.926-1.817-5.886 9.492 2.91 1.809a2.643 2.643 0 0 1 1.23 2.5c-.046.55-.066 1.105-.054 1.66a2.655 2.655 0 0 1-1.387 2.41l-3.012 1.614 5.281 9.847 3.012-1.617a2.66 2.66 0 0 1 2.774.176c.457.32.93.61 1.414.875.883.484 1.433 1.402 1.402 2.41l-.105 3.426 11.164.343.105-3.425c.031-1.004.645-1.875 1.55-2.301a16.053 16.053 0 0 0 1.457-.781c.86-.52 1.93-.551 2.786-.02l2.91 1.805"/><path fill="#e8e8e6" d="M165.016 66.945a6.405 6.405 0 0 1-6.407 6.407 6.41 6.41 0 1 1 0-12.82 6.412 6.412 0 0 1 6.407 6.413zm7.476-3.504-3.906-6.777-2.074 1.2a1.854 1.854 0 0 1-1.953-.067c-.325-.211-.664-.406-1.012-.582a1.865 1.865 0 0 1-1.027-1.656v-2.395h-7.829v2.395c0 .703-.402 1.336-1.027 1.656-.351.176-.687.37-1.016.582-.59.387-1.34.422-1.949.066l-2.074-1.199-3.91 6.777 2.082 1.204c.613.347.95 1.02.914 1.722a9.535 9.535 0 0 0-.016.578c0 .192.004.383.016.575.035.703-.3 1.367-.906 1.718l-2.09 1.207 3.91 6.778 2.078-1.2a1.862 1.862 0 0 1 1.953.07c.324.212.66.407 1.008.583.625.32 1.027.953 1.027 1.652v2.395h7.829v-2.395c0-.7.402-1.332 1.027-1.652.348-.176.683-.371 1.008-.582a1.856 1.856 0 0 1 1.949-.07l2.082 1.199 3.906-6.778-2.078-1.199c-.61-.351-.941-1.02-.906-1.723a13.8 13.8 0 0 0 0-1.156c-.04-.703.297-1.375.91-1.726l2.074-1.2"/><path fill="#17272e" d="M45.46 260.543c-13.065 12.797-15.26 32.59-12.507 49.926.07.394.68.285.68-.082 0-3.95-.117-7.86-.106-11.758.07-.18.13-.348.2-.524 3.414-2.48 6.546-5.285 8.492-9.125 2.18-4.289 3.039-9.132 4.707-13.613.156-.43-.301-.304-.602-.082-7.949 5.86-10.48 12.172-12.761 20.602.105-4.375.44-8.754 1.382-13.13 1.715-8 5.114-15.929 10.864-21.866.214-.227-.121-.575-.348-.348"/><path fill="#fbbb1e" d="M47.918 262.035c2.246.078 3.656 3.672 5.41 4.719.926.558 1.828.523 2.48-.39 1.735-2.423-.648-5.415-2.886-7.087 1.601.66 2.93 1.817 4.66 2.145 1.043.191 1.855-.195 2.102-1.258.761-3.305-3.383-4.773-6.227-4.844 1.379-.957 5.328-3.562 3.23-4.843-2.128-1.286-6.761 2.437-8.273 3.664-2.223 1.804-4.875 4.5-4.973 7.32-.132 3.293 2.746 1.266 4.477.574"/><path fill="#f4ac11" d="M54.484 267.121c-.37 0-.761-.129-1.156-.367-1.3-.777-2.41-2.953-3.812-4.059a3.749 3.749 0 0 0-.512-.34 2.398 2.398 0 0 0-1.086-.32c-1.004.402-2.395 1.25-3.36 1.25-.265 0-.5-.062-.683-.219a1.107 1.107 0 0 1-.324-.515 2.918 2.918 0 0 1-.117-.887c0-.066.003-.133.007-.203.098-2.82 2.75-5.516 4.973-7.32 1.293-1.047 4.879-3.93 7.219-3.93.39 0 .75.082 1.054.266.426.261.602.574.602.918-.004 1.351-2.734 3.164-3.832 3.925 2.61.063 6.316 1.309 6.316 4.067 0 .246-.027.508-.09.777-.203.89-.808 1.305-1.613 1.305-.156 0-.32-.016-.488-.047-1.73-.328-3.059-1.485-4.66-2.145 1.703 1.274 3.484 3.301 3.484 5.27 0 .62-.18 1.234-.597 1.816-.375.524-.829.758-1.325.758"/><path fill="#fbbb1e" d="M47.266 262.59c2.875-1.305 8.398.574 8.867-.512.953-2.215-3.461-3.734-5.844-4.027 2.195-.598 6.398-1.543 6.27-3.66-.16-2.582-6.45-.36-9.633 2.082-4.008 3.074-3.98 6.039-3.32 6.632.91.817 3.187-.3 3.66-.515"/><path fill="#17272e" d="M15.7 259.277c13.546 12.29 16.491 31.985 14.398 49.414-.059.395-.668.313-.684-.058-.148-3.946-.18-7.856-.34-11.754-.078-.176-.144-.34-.222-.516-3.5-2.347-6.743-5.027-8.829-8.793-2.347-4.203-3.386-9.008-5.226-13.425-.172-.422.293-.317.598-.106 8.168 5.555 10.94 11.766 13.539 20.102-.274-4.368-.774-8.727-1.88-13.067-2.023-7.93-5.718-15.722-11.687-21.437-.222-.219.098-.578.332-.36"/><path fill="#fbbb1e" d="M13.3 260.863c-2.241.16-3.515 3.805-5.226 4.918-.902.594-1.808.594-2.492-.293-1.828-2.355.438-5.433 2.613-7.191-1.574.719-2.86 1.926-4.574 2.32-1.035.23-1.863-.125-2.148-1.18-.887-3.273 3.199-4.898 6.039-5.074-1.414-.906-5.461-3.36-3.414-4.718 2.078-1.368 6.851 2.18 8.41 3.347 2.289 1.719 5.039 4.309 5.246 7.125.254 3.285-2.7 1.367-4.453.746"/><path fill="#f4ac11" d="M6.875 266.195c-.473 0-.918-.218-1.293-.707a3.055 3.055 0 0 1-.668-1.933c.004-1.922 1.668-3.953 3.281-5.258-1.574.719-2.86 1.926-4.574 2.32-.2.043-.39.067-.574.067-.762 0-1.344-.395-1.574-1.246a3.453 3.453 0 0 1-.121-.887c0-2.68 3.59-4.028 6.16-4.188-1.14-.73-3.98-2.46-3.98-3.816 0-.328.167-.637.566-.902.328-.215.722-.31 1.16-.31 2.34 0 5.937 2.673 7.25 3.657 2.289 1.719 5.039 4.309 5.246 7.125.012.133.016.258.016.371 0 .403-.06.707-.165.934-.093.015-.16.105-.175.265-.016.016-.032.036-.051.051-.191.176-.445.246-.738.246-.961 0-2.344-.77-3.34-1.12-2.242.16-3.516 3.804-5.227 4.917-.406.266-.812.414-1.199.414"/><path fill="#fbbb1e" d="M13.973 261.39c-2.922-1.195-8.368.895-8.88-.175-1.034-2.176 3.317-3.863 5.684-4.246-2.214-.512-6.449-1.297-6.402-3.418.063-2.586 6.43-.606 9.703 1.71 4.125 2.923 4.211 5.887 3.57 6.509-.875.847-3.191-.18-3.675-.38"/><path fill="#17272e" d="M29.55 291.73c1 6.477 2.24 13.172 4.208 19.43.187.57 1.031.426.945-.191-.89-5.989-2.512-11.864-3.402-17.852-.903-6.058-1.387-12.199-1.04-18.328.571-10.09 3.31-20.82 9.895-28.715.145-.187-.164-.453-.312-.277-13.18 15.367-11.082 34.21-11.07 35.898-1.868-6.36-3.79-13.656-10.848-20.132-.305-.282-.543-.149-.492.328 1.261 11.8 4.543 17.96 11.386 24.27.192 1.87.434 3.734.73 5.57"/><path fill="#fbbb1e" d="M40.273 247.844c2.372-1.055 5.641 1.965 7.989 2.172 1.242.113 2.16-.38 2.379-1.657.582-3.386-3.395-5.289-6.563-5.898.762-.047 1.52.004 2.274.05 1.218.079 2.43.157 3.64-.167 1.18-.328 1.828-1.14 1.547-2.367-.875-3.813-5.91-3.25-8.898-1.891.949-1.688 3.738-6.379.914-6.652-2.852-.262-5.79 5.933-6.739 7.968-1.398 2.989-2.793 7.121-1.476 10.094 1.52 3.484 3.488-.066 4.933-1.652"/><path fill="#f4ac11" d="M36.844 250.977c-.035 0-.067-.004-.102-.004a1.124 1.124 0 0 1-.566-.243c-.29-.226-.57-.62-.836-1.234-.375-.84-.528-1.777-.528-2.754 0-2.469 1-5.195 2.004-7.34.93-1.992 3.766-7.976 6.563-7.976.058 0 .117.004.176.008.902.086 1.23.625 1.23 1.37 0 1.59-1.5 4.134-2.144 5.282 1.293-.59 2.968-1.027 4.523-1.027 2.043 0 3.879.754 4.375 2.918.043.191.066.375.066.543 0 .925-.617 1.547-1.613 1.824-.676.18-1.355.238-2.035.238-.535 0-1.07-.035-1.605-.07-.54-.035-1.079-.07-1.618-.07-.218 0-.437.008-.656.019 2.957.566 6.621 2.266 6.617 5.242 0 .215-.015.434-.054.656-.149.868-.618 1.372-1.293 1.57-.012.005-.02.005-.032.009-.218.062-.46.093-.718.093-.11 0-.223-.008-.336-.015a4.253 4.253 0 0 1-.696-.133c-1.898-.516-4.222-2.262-6.187-2.262a2.69 2.69 0 0 0-1.106.223c-.445.488-.945 1.168-1.46 1.77-.645.742-1.317 1.363-1.97 1.363"/><path fill="#fbbb1e" d="M39.879 248.746c2.324-2.805 9-3.633 8.941-4.996-.129-2.777-5.472-2.133-8.09-1.238 1.977-1.723 5.86-4.82 4.66-6.95-1.464-2.601-6.87 2.868-8.945 7.004-2.613 5.211-1.09 8.274-.105 8.559 1.355.387 3.156-1.918 3.539-2.379M20.879 295.281 15.066 339.7h35.375c-.73-3.937-7.312-44.469-7.312-44.469l-22.25.051"/><g clip-path="url(#a)"><path fill="#17272e" d="m0 339.848 51.656-.243 51.657-.09 103.312-.167 103.313.168 51.66.085 51.656.247-51.656.246-51.66.086-103.313.168-103.313-.168-51.656-.09L0 339.848"/></g><g clip-path="url(#b)"><path fill="#e8e8e6" d="M355.684 405.746c0 11.637-66.739 21.074-149.059 21.074S57.57 417.383 57.57 405.746c0-11.64 66.735-21.078 149.055-21.078 82.32 0 149.059 9.437 149.059 21.078"/></g><path fill="#17272e" d="m80.602 139.57 24.25-6.164-8.02-31.562zm33.597 44.809-6.21-24.434-49.036 12.465-6.48-25.5L91.66 57.598l19.438-4.942 18.898 74.364 15.691-3.993 6.528 25.68-15.692 3.988 6.207 24.43-28.53 7.254M225.023 102.824c0-8.586-1.718-15.547-5.152-20.883-3.434-5.336-7.848-8.004-13.246-8.004-5.645 0-10.148 2.668-13.523 8.004-3.375 5.336-5.059 12.297-5.059 20.883 0 8.586 1.684 15.516 5.059 20.79 3.375 5.277 7.878 7.91 13.523 7.91 5.398 0 9.813-2.633 13.246-7.91 3.434-5.274 5.152-12.204 5.152-20.79zm29.625 0c0 8.094-1.23 15.547-3.68 22.352-2.456 6.808-5.827 12.695-10.12 17.664-4.297 4.969-9.356 8.832-15.18 11.594-5.828 2.757-12.176 4.136-19.043 4.136-6.871 0-13.246-1.379-19.133-4.136-5.89-2.762-10.98-6.625-15.273-11.594-4.293-4.969-7.633-10.856-10.028-17.664-2.39-6.805-3.586-14.258-3.586-22.352 0-8.097 1.196-15.547 3.586-22.355 2.395-6.809 5.735-12.696 10.028-17.664 4.293-4.965 9.383-8.86 15.273-11.684 5.887-2.82 12.262-4.23 19.133-4.23 6.867 0 13.215 1.41 19.043 4.23 5.824 2.824 10.883 6.719 15.18 11.684 4.293 4.968 7.664 10.855 10.12 17.664 2.45 6.808 3.68 14.258 3.68 22.355M294.488 125.191l24.7 4 5.21-32.144zm12.98 54.477 4.032-24.883-49.945-8.09 4.207-25.972 71.508-66.325 19.796 3.207-12.27 75.735 15.985 2.59-4.238 26.156-15.984-2.59-4.032 24.883-29.058-4.711M156.98 14.621c0 1.242.188 2.441.567 3.598a9.644 9.644 0 0 0 1.633 3.07 8.166 8.166 0 0 0 2.629 2.14c1.035.54 2.214.81 3.535.81 1.343 0 2.535-.278 3.574-.829a8.226 8.226 0 0 0 2.625-2.203 9.68 9.68 0 0 0 1.613-3.09c.367-1.144.547-2.308.547-3.496 0-1.238-.195-2.434-.586-3.594a9.934 9.934 0 0 0-1.656-3.07 7.937 7.937 0 0 0-2.625-2.121c-1.035-.524-2.203-.785-3.492-.785-1.348 0-2.547.273-3.598.828a7.93 7.93 0 0 0-2.625 2.18 9.901 9.901 0 0 0-1.598 3.07 11.476 11.476 0 0 0-.543 3.492zm8.32 14.543c-2.1 0-4.003-.41-5.714-1.23-1.711-.82-3.18-1.91-4.402-3.274a14.83 14.83 0 0 1-2.848-4.664 14.806 14.806 0 0 1-1.012-5.375c0-1.91.356-3.742 1.07-5.492.715-1.75 1.696-3.3 2.95-4.645a14.06 14.06 0 0 1 4.465-3.21c1.722-.797 3.593-1.196 5.613-1.196 2.074 0 3.965.426 5.676 1.274a14.18 14.18 0 0 1 4.382 3.332 15.368 15.368 0 0 1 2.829 4.687c.671 1.75 1.011 3.527 1.011 5.332a14.5 14.5 0 0 1-1.05 5.473 14.903 14.903 0 0 1-2.91 4.605 13.973 13.973 0 0 1-4.442 3.192c-1.727.797-3.598 1.191-5.617 1.191M187.316 18.422c0 .941.145 1.797.426 2.562.281.77.672 1.434 1.172 2a5.166 5.166 0 0 0 3.938 1.778 5.16 5.16 0 0 0 3.937-1.778 6.17 6.17 0 0 0 1.172-2.02c.281-.78.426-1.64.426-2.585 0-.914-.145-1.762-.426-2.543a6.17 6.17 0 0 0-1.172-2.02 5.166 5.166 0 0 0-1.758-1.312 5.104 5.104 0 0 0-2.18-.469 4.95 4.95 0 0 0-2.18.488 5.38 5.38 0 0 0-1.757 1.332 6.17 6.17 0 0 0-1.172 2.02 7.462 7.462 0 0 0-.426 2.547zm5.536 10.945c-1.723 0-3.274-.297-4.645-.887-1.375-.593-2.539-1.394-3.496-2.406a10.527 10.527 0 0 1-2.2-3.492 11.331 11.331 0 0 1-.769-4.16c0-1.485.254-2.883.77-4.203a10.488 10.488 0 0 1 2.199-3.492c.957-1.012 2.121-1.813 3.496-2.407 1.371-.59 2.922-.886 4.645-.886 1.722 0 3.265.296 4.625.886 1.359.594 2.52 1.395 3.472 2.407a10.56 10.56 0 0 1 2.203 3.492c.512 1.32.77 2.719.77 4.203 0 1.453-.258 2.84-.77 4.16a10.799 10.799 0 0 1-2.18 3.492c-.945 1.012-2.1 1.813-3.476 2.406-1.371.59-2.922.887-4.644.887M218.422 24.762c.808 0 1.555-.172 2.242-.524a5.479 5.479 0 0 0 1.758-1.414 6.667 6.667 0 0 0 1.129-2.062c.27-.782.406-1.586.406-2.422 0-.89-.148-1.719-.445-2.485a6.136 6.136 0 0 0-1.235-2 5.64 5.64 0 0 0-1.855-1.332 5.557 5.557 0 0 0-2.324-.488c-.512 0-1.035.09-1.575.266a5.53 5.53 0 0 0-1.496.746c-.457.324-.867.7-1.23 1.133a4.67 4.67 0 0 0-.828 1.414v4.968a7.18 7.18 0 0 0 2.219 3.008c1 .793 2.078 1.192 3.234 1.192zm1.816 4.605c-1.668 0-3.125-.37-4.36-1.11a7.893 7.893 0 0 1-2.91-3.01v12.32h-5.413V7.796h4.726v3.633a8.588 8.588 0 0 1 3.031-2.926c1.239-.715 2.665-1.07 4.282-1.07 1.426 0 2.746.289 3.957.867a9.747 9.747 0 0 1 3.133 2.344c.875.984 1.558 2.14 2.058 3.472.5 1.332.746 2.742.746 4.223 0 1.535-.226 2.976-.683 4.32-.457 1.348-1.098 2.52-1.918 3.516a9.02 9.02 0 0 1-2.93 2.344c-1.133.566-2.371.847-3.719.847M241.164 29.367c-1.777 0-3.516-.281-5.21-.847-1.696-.567-3.15-1.375-4.364-2.426l2.02-3.39c1.292.913 2.55 1.608 3.777 2.077 1.226.473 2.445.707 3.656.707 1.078 0 1.926-.203 2.547-.605.617-.403.93-.985.93-1.735 0-.753-.368-1.308-1.094-1.66-.727-.347-1.91-.754-3.555-1.21a46.964 46.964 0 0 1-3.516-1.09c-.968-.348-1.75-.747-2.34-1.192-.593-.445-1.023-.957-1.292-1.535-.27-.578-.407-1.274-.407-2.078 0-1.078.211-2.047.63-2.91.413-.864 1-1.598 1.753-2.203.754-.606 1.64-1.07 2.649-1.391 1.007-.324 2.105-.488 3.293-.488 1.59 0 3.074.23 4.464.687 1.383.457 2.657 1.2 3.817 2.223l-2.184 3.27c-1.078-.805-2.12-1.4-3.129-1.774a8.517 8.517 0 0 0-3.007-.567c-.918 0-1.688.188-2.305.567-.621.375-.93.98-.93 1.816 0 .375.074.688.223.93.148.242.383.457.707.644.324.192.746.372 1.273.547.524.176 1.176.356 1.957.543 1.453.38 2.7.754 3.739 1.133 1.035.38 1.882.809 2.543 1.293.66.484 1.144 1.043 1.457 1.676.308.633.464 1.394.464 2.281 0 2.074-.77 3.711-2.304 4.91-1.535 1.2-3.621 1.797-6.262 1.797M254.293 28.965v-6.102h5.414v6.102zm0-10.785V0h5.414v18.18h-5.414"/><path fill="#263d47" d="M227.227 273.46h-35.512v-2.91h35.512v2.91M227.227 277.25h-35.512v-2.91h35.512v2.91M227.227 281.04h-35.512v-2.911h35.512v2.91M227.227 284.828h-35.512v-2.91h35.512v2.91M227.227 288.617h-35.512v-2.91h35.512v2.91M242.602 364.207h-67.516v-2.91h67.516v2.91M242.602 367.996h-67.516v-2.91h67.516v2.91M242.602 371.785h-67.516v-2.91h67.516v2.91M242.602 375.574h-67.516v-2.906h67.516v2.906M175.086 379.363h67.516v-2.906h-67.516zm0 0"/><path fill="#fbbb1e" d="M145.46 246.504c.032-.395-14.776-5.356-14.776-5.356l.875-50.886 19.636-4.215-5.734 60.457"/><path fill="#d59814" d="M143.992 245.816c-3.734-1.46-13.308-4.668-13.308-4.668l.875-50.886 17.496-3.754c-2.02 19.918-3.868 43.246-5.063 59.308"/><path fill="#fbbb1e" d="M281.113 266.477c.106-.38 15.719.058 15.719.058l16.691-48.078-16.988-10.715-15.422 58.735"/><path fill="#d59814" d="M296.832 266.535s-7.59-.215-12.219-.215c-.941 0-1.761.008-2.367.032 4.64-16.083 11.379-39.461 16.492-57.223l14.785 9.328-16.691 48.078"/><path fill="#fbbb1e" d="M142.61 265.238s5.492-82.297 10.304-109.37c0 0 99.418 7.519 153.09 28.034 0 0-27.672 96.125-29.102 100.899 0 0-70.007-13.793-134.293-19.563"/><path fill="#f4ac11" d="m287.57 241.887-2.527-.563c.004-.02.012-.039.016-.058l2.511.62m-60.425-13.87-6.31-1.473-.339-.078.063-.344 5.304-29.644a4026.28 4026.28 0 0 1 5.485-29.618c-1.618 9.91-3.25 19.817-4.946 29.711l-5.066 29.34 5.984 1.418c-.062.23-.12.457-.175.688M225.773 174.45c-.453 0-.925-.165-1.289-.481a1.961 1.961 0 0 1 0-2.926 1.981 1.981 0 0 1 1.461-.469c1.043.09 1.766 1.028 1.746 1.934.02.906-.703 1.84-1.746 1.934a2.363 2.363 0 0 1-.172.008m.348-3.508c-.059 0-.117.004-.176.008-.836.097-1.383.851-1.37 1.558-.012.707.53 1.465 1.37 1.559.059.008.117.008.176.008.36 0 .73-.121 1.024-.371.34-.29.542-.738.546-1.195a1.62 1.62 0 0 0-.546-1.2 1.598 1.598 0 0 0-1.024-.367M224.027 186.695c-.453 0-.925-.164-1.289-.48a1.975 1.975 0 0 1-.656-1.461 1.99 1.99 0 0 1 .656-1.465 1.981 1.981 0 0 1 1.29-.476c.058 0 .117 0 .171.008 1.043.09 1.766 1.023 1.746 1.933.02.906-.703 1.84-1.746 1.934a2.363 2.363 0 0 1-.172.008m.352-3.508c-.063 0-.121 0-.18.008-.836.098-1.383.851-1.37 1.558-.013.708.53 1.465 1.37 1.56.059.007.117.007.176.007.36 0 .73-.121 1.023-.371.34-.29.543-.738.547-1.195a1.613 1.613 0 0 0-.547-1.2 1.596 1.596 0 0 0-1.02-.367M221.879 199.633c-.453 0-.926-.16-1.29-.48a1.961 1.961 0 0 1-.655-1.462c0-.554.246-1.105.656-1.46a1.947 1.947 0 0 1 1.46-.473c1.044.09 1.766 1.027 1.747 1.934.02.91-.703 1.84-1.746 1.933-.059.004-.114.008-.172.008m.348-3.508c-.059 0-.118.004-.176.008-.836.098-1.383.852-1.371 1.559-.012.707.53 1.465 1.37 1.559a1.61 1.61 0 0 0 1.2-.36c.34-.289.543-.742.547-1.199a1.605 1.605 0 0 0-.547-1.195 1.589 1.589 0 0 0-1.023-.371M219.727 212.57c-.454 0-.922-.16-1.29-.476a1.984 1.984 0 0 1-.656-1.465 1.976 1.976 0 0 1 .656-1.461 1.985 1.985 0 0 1 1.465-.472c1.04.093 1.762 1.027 1.746 1.933.016.91-.707 1.844-1.746 1.934-.058.004-.117.008-.175.008m.347-3.508a1.29 1.29 0 0 0-.172.012c-.84.097-1.382.847-1.37 1.554-.012.707.53 1.465 1.37 1.563a1.599 1.599 0 0 0 1.2-.363c.34-.29.543-.739.546-1.2a1.595 1.595 0 0 0-.55-1.195 1.581 1.581 0 0 0-1.024-.37M227.05 233.207c-.452 0-.921-.164-1.284-.48a1.98 1.98 0 0 1-.66-1.461c.003-.555.25-1.106.66-1.465.359-.317.832-.477 1.285-.477a1.88 1.88 0 0 1 1.203.43c-.016.055-.027.11-.04.168a1.563 1.563 0 0 0-.987-.21c-.84.093-1.383.847-1.372 1.554-.011.707.532 1.465 1.372 1.558.058.008.117.012.171.012.118 0 .235-.016.352-.039-.012.098-.023.191-.031.29-.153.058-.32.097-.492.112-.059.004-.118.008-.176.008M217.574 225.512c-.449 0-.922-.164-1.285-.48a1.961 1.961 0 0 1 0-2.927 1.971 1.971 0 0 1 1.465-.468c1.039.09 1.762 1.023 1.742 1.933.02.907-.707 1.84-1.742 1.934-.059.004-.117.008-.18.008m.356-3.508a2.37 2.37 0 0 0-.176.008c-.84.098-1.387.852-1.371 1.559-.016.707.527 1.46 1.37 1.558a1.589 1.589 0 0 0 1.195-.363c.341-.289.544-.738.548-1.195a1.607 1.607 0 0 0-.547-1.2 1.596 1.596 0 0 0-1.02-.366"/><path fill="#d59814" d="M180.094 252.25c-1.5 0-3.02-.121-4.547-.367-15.395-2.496-25.848-16.992-23.356-32.383 2.247-13.863 14.23-23.723 27.832-23.723 1.504 0 3.024.121 4.551.368 15.39 2.496 25.848 16.992 23.356 32.382-2.246 13.864-14.235 23.723-27.836 23.723"/><path fill="#17272e" d="M202.41 227.633c-2 12.344-13.629 20.73-25.973 18.73-12.34-2-20.726-13.629-18.726-25.968 2-12.344 13.625-20.73 25.969-18.73 12.343 2 20.73 13.624 18.73 25.968"/><path fill="#fbbb1e" d="m177.832 220.996-5.293-.855.86-5.293 5.292.855-.859 5.293M173.398 214.848l-5.293-.86.856-5.293 5.293.86-.856 5.293M194.57 218.277l-5.293-.855.856-5.293 5.293.855-.856 5.293M169.984 235.898l-5.293-.855.86-5.293 5.293.855-.86 5.293M191.156 239.332l-5.293-.86.86-5.292 5.293.86-.86 5.292"/><path fill="#fbbb1e" d="m176.137 231.465-5.293-.86.855-5.292 5.293.859-.855 5.293M182.277 227.09l-5.293-.86.86-5.292 5.293.859-.86 5.293"/><path fill="#fbbb1e" d="m188.418 222.715-5.293-.86.86-5.292 5.292.859-.859 5.293M186.723 233.18l-5.293-.86.855-5.293 5.293.86-.855 5.293M283.285 242.371c-3.605 15.168-18.824 24.543-33.996 20.942-15.168-3.606-24.543-18.829-20.937-33.997 3.605-15.168 18.824-24.543 33.992-20.937 15.172 3.605 24.547 18.824 20.941 33.992"/><path fill="#d59814" d="M255.84 264.082c-2.16 0-4.356-.25-6.55-.77-12.977-3.085-21.712-14.667-21.712-27.449 0-2.023.223-4.078.68-6.133a30.594 30.594 0 0 0-.446 2.54l5.489 1.171c-1.207 11.172 6.062 21.762 17.281 24.43 1.762.418 3.52.621 5.254.621 9.66 0 18.469-6.226 21.516-15.656l5.492 1.172c.031-.11.062-.219.097-.328-3.53 12.25-14.757 20.402-27.101 20.402"/><path fill="#d59814" d="M282.941 243.68c.125-.43.239-.868.344-1.309.067-.289.133-.578.192-.867h.004c-.059.289-.125.582-.196.871-.101.445-.219.875-.344 1.305M228.258 229.73c.027-.14.058-.277.094-.417a21.28 21.28 0 0 1 0 .003c-.032.137-.067.278-.094.414"/><path fill="#a27618" d="m282.844 244.008-5.492-1.172c.187-.574.351-1.16.492-1.758.07-.289.133-.578.191-.871l5.442 1.297a27.909 27.909 0 0 1-.535 2.176c-.036.11-.067.218-.098.328M233.3 233.44l-5.489-1.171c.114-.844.258-1.692.446-2.54.027-.136.062-.277.093-.414.07-.289.141-.578.22-.863l5.44 1.293a23.22 23.22 0 0 0-.71 3.695"/><path fill="#17272e" d="M277.844 241.078c-2.89 12.168-15.098 19.684-27.262 16.793-12.164-2.89-19.684-15.098-16.793-27.262 2.895-12.164 15.098-19.683 27.266-16.793 12.164 2.891 19.68 15.098 16.789 27.262"/><path fill="#fbbb1e" d="m255.34 249.45-5.215-1.243 6.172-25.965 5.215 1.238-6.172 25.97"/><path fill="#fbbb1e" d="m284.926 241.848-57.805-13.739c3.793-15.957 19.813-25.82 35.77-22.023 15.957 3.789 25.828 19.8 22.035 35.762"/><path fill="#d59814" d="m284.926 241.848-26.293-6.25-5.219-1.239-26.293-6.25c3.246-13.648 15.434-22.836 28.875-22.836 2.277 0 4.586.262 6.895.813 13.652 3.242 22.847 15.43 22.843 28.875 0 2.082-.218 4.191-.675 6.305-.004.02-.012.039-.016.058-.035.172-.078.348-.117.524"/><path fill="#f4ac11" d="M222.469 254.977c-.375-2.22-.95-4.372-1.989-6.137-1.035-1.781-2.667-2.89-4.617-3.063a7.529 7.529 0 0 0-.933-.058 6.961 6.961 0 0 0-4.547 1.664c-1.563 1.316-2.754 3.199-3.688 5.242.149-2.254.977-4.543 2.614-6.355a7.627 7.627 0 0 1 3.07-2.063c.887-.328 1.828-.453 2.754-.453.316 0 .633.015.945.043 1.242.144 2.516.582 3.55 1.363a7.334 7.334 0 0 1 2.25 2.969c.942 2.238 1.048 4.629.59 6.848"/><path fill="#fff" d="M150.344 195.043c.234-3.016.57-6.016.855-9.023.324-3.004.653-6.008 1.02-9.008.347-3 .738-5.992 1.12-8.989.376-2.996.81-5.984 1.212-8.976l.11-.8.808.05c6.515.414 13.015.937 19.504 1.605 3.246.332 6.488.711 9.722 1.125 3.23.465 6.47.895 9.68 1.48l-19.52-1.206-19.496-1.262.918-.75c-.441 2.988-.855 5.98-1.324 8.965-.46 2.98-.914 5.969-1.414 8.945-.48 2.985-.996 5.957-1.52 8.934-.558 2.972-1.066 5.95-1.675 8.91M155.04 217.86c.651-3.626 2.3-7.083 4.515-10.09.55-.754 1.175-1.458 1.78-2.176.653-.672 1.333-1.324 2.005-1.985a81.005 81.005 0 0 1 2.219-1.754c.796-.507 1.582-1.035 2.39-1.52.856-.41 1.703-.831 2.563-1.222l2.683-.925 2.778-.575c.93-.136 1.879-.164 2.812-.234 3.766-.098 7.469.707 10.867 2.082-3.617-.676-7.222-1.055-10.777-.715a25.384 25.384 0 0 0-10.074 3.125c-3.106 1.695-5.856 4.035-8.18 6.75-2.312 2.73-4.226 5.824-5.582 9.238M232.91 225.488c1.152-3.504 3.262-6.695 5.867-9.37.653-.673 1.371-1.282 2.067-1.907.738-.578 1.504-1.133 2.258-1.695a94.66 94.66 0 0 1 2.437-1.43c.86-.39 1.715-.805 2.582-1.172.902-.289 1.8-.59 2.707-.855l2.785-.551 2.828-.184c.942-.008 1.883.098 2.82.156 3.743.422 7.301 1.73 10.477 3.563-3.492-1.172-7.008-2.04-10.578-2.195a25.235 25.235 0 0 0-10.406 1.707c-3.313 1.25-6.356 3.183-9.031 5.554-2.672 2.383-4.993 5.18-6.813 8.38"/><path fill="#fbbb1e" d="M145.77 315.957c-7.235 0-23.067-1.625-33.254-14.727-13.036-16.757-8.325-48.914-8.118-50.273l5.66.86c-.046.308-4.542 31.09 6.977 45.902 11.262 14.48 31.692 12.402 31.895 12.375l.644 5.687c-.222.028-1.625.176-3.804.176"/><path fill="#fdd461" d="M145.316 315.953c-7.421-.066-22.82-1.89-32.8-14.723-7.473-9.605-9.114-24.27-9.114-35.296 0-8.207.91-14.399.996-14.977l5.66.86c-.019.136-.902 6.167-.902 14.148-.004 10.152 1.426 23.457 7.88 31.754 8.03 10.328 20.726 12.23 27.421 12.465l.86 5.77"/><path fill="#fbbb1e" d="M111.723 255.71c-1.032 0-2.086-.085-3.16-.26-9.543-1.548-13.77-7.259-15.637-11.778-1.867-4.531-2.301-10.012-1.281-16.285l12.105 1.96c-.629 3.887-.445 7.313.516 9.65.683 1.66 2.015 3.66 6.261 4.347 1.938.312 4.032.148 6.227-3.16 1.691-2.555 2.71-6.032 3.066-8.235l12.106 1.961c-.281 1.735-1.465 7.793-4.953 13.05-3.79 5.716-9.125 8.75-15.25 8.75M157.727 332.336c-.024-.258-10.258-1.895-10.258-1.895l-4.965-33.406 12.394-4.894 2.829 40.195"/><path fill="#d59814" d="M156.352 331.977c-2.793-.563-8.883-1.536-8.883-1.536l-4.965-33.406 11.082-4.379c.363 12.067 1.516 26.422 2.766 39.32"/><path fill="#fbbb1e" d="M258.922 332.398c.027-.257 10.297-1.668 10.297-1.668l5.703-33.289-12.285-5.168-3.715 40.125"/><path fill="#d59814" d="m271.496 317.43 2.98-20.176.446.187-3.426 19.989m-8.652-18.297.668-6.492 10.222 4.3-2.859-.523-8.031 2.715m8.031-2.715"/><path fill="#fbbb1e" d="M153.469 284.66s82.785-3.539 110.75 1.121c0 0-8.211 80.106-8.656 81.66 0 0-82.352-.222-95.223 0 0 0-6.98-53.27-6.871-82.78"/><path fill="#d59814" d="M234.348 348.352s-19.98-.047-35.383-.047c-5.824 0-10.988.004-14.176.027l-3.355-41.824c5.386-.184 17.707-.547 30.003-.547 10.793 0 21.575.281 27.633 1.215l-4.722 41.175"/><path fill="#d59814" d="M182.36 348.355s-3.083-27.652-3.75-41.746c0 0 1.027-.043 2.824-.101a993.9 993.9 0 0 0-2.82.101c.66 14.098 3.75 41.743 3.75 41.743.57-.008 1.394-.016 2.425-.02v.004c-1.035 0-1.855.012-2.43.02"/><path fill="#a27618" d="M182.363 348.352s-3.09-27.645-3.75-41.743c0 0 1.028-.039 2.82-.101l3.356 41.824c-1.031.004-1.855.012-2.426.02"/><path fill="#fbbb1e" d="M200.7 322.43a4.22 4.22 0 1 1-8.052-2.535 4.225 4.225 0 0 1 5.297-2.758 4.218 4.218 0 0 1 2.754 5.293zm-2.579-5.852a4.81 4.81 0 0 0-6.031 3.14 4.805 4.805 0 0 0 3.14 6.028 4.8 4.8 0 0 0 6.028-3.14 4.806 4.806 0 0 0-3.137-6.028zm2.578 5.852a4.22 4.22 0 1 1-8.05-2.535 4.225 4.225 0 0 1 5.296-2.758 4.218 4.218 0 0 1 2.754 5.293zm-2.578-5.852a4.81 4.81 0 0 0-6.031 3.14 4.805 4.805 0 0 0 3.14 6.028 4.8 4.8 0 0 0 6.028-3.14 4.806 4.806 0 0 0-3.137-6.028zm2.578 5.852a4.22 4.22 0 1 1-8.05-2.535 4.225 4.225 0 0 1 5.296-2.758 4.218 4.218 0 0 1 2.754 5.293zm.559.175a4.806 4.806 0 1 0-6.028 3.141 4.8 4.8 0 0 0 6.028-3.14zm.715.227c-.922 2.922-4.047 4.55-6.965 3.629a5.557 5.557 0 0 1-3.63-6.965 5.558 5.558 0 0 1 6.97-3.629c2.918.918 4.543 4.043 3.625 6.965zm-2.25-11.332c-5.34-1.684-11.028 1.285-12.711 6.617-1.68 5.336 1.281 11.028 6.617 12.707 5.336 1.684 11.027-1.281 12.707-6.617 1.684-5.332-1.281-11.027-6.613-12.707zm.976 10.93a4.22 4.22 0 1 1-8.05-2.535 4.225 4.225 0 0 1 5.296-2.758 4.218 4.218 0 0 1 2.754 5.293zm-2.578-5.852a4.81 4.81 0 0 0-6.031 3.14 4.805 4.805 0 0 0 3.14 6.028 4.8 4.8 0 0 0 6.028-3.14 4.806 4.806 0 0 0-3.137-6.028zm2.578 5.852a4.22 4.22 0 1 1-8.05-2.535 4.225 4.225 0 0 1 5.296-2.758 4.218 4.218 0 0 1 2.754 5.293zm-2.578-5.852a4.81 4.81 0 0 0-6.031 3.14 4.805 4.805 0 0 0 3.14 6.028 4.8 4.8 0 0 0 6.028-3.14 4.806 4.806 0 0 0-3.137-6.028zm2.578 5.852a4.22 4.22 0 1 1-8.05-2.535 4.225 4.225 0 0 1 5.296-2.758 4.218 4.218 0 0 1 2.754 5.293zm-2.578-5.852a4.81 4.81 0 0 0-6.031 3.14 4.805 4.805 0 0 0 3.14 6.028 4.8 4.8 0 0 0 6.028-3.14 4.806 4.806 0 0 0-3.137-6.028"/><path fill="#fbbb1e" d="m195.613 331.008-3.715-1.168-.625 2.695 3.305 1.04 1.035-2.567M188.938 327.531l-1.801-3.457-2.348 1.465 1.602 3.074 2.547-1.082M186.676 320.348l1.172-3.715-2.696-.625-1.043 3.305 2.567 1.035M190.156 313.668l3.453-1.797-1.46-2.348-3.075 1.602 1.082 2.543M197.34 311.41l3.715 1.168.62-2.695-3.304-1.04-1.031 2.567M204.016 314.89l1.8 3.454 2.344-1.465-1.597-3.074-2.547 1.086M206.277 322.07l-1.172 3.715 2.696.625 1.043-3.305-2.567-1.035M202.797 328.75l-3.457 1.797 1.465 2.348 3.074-1.602-1.082-2.543"/><path fill="#d4d6d3" d="M215.074 334.98a2.839 2.839 0 0 1-3.93.833 2.843 2.843 0 0 1 3.102-4.766 2.843 2.843 0 0 1 .828 3.933zm-.613-4.261a3.235 3.235 0 1 0-3.531 5.422 3.235 3.235 0 0 0 3.53-5.422zm.613 4.261a2.839 2.839 0 0 1-3.93.833 2.843 2.843 0 0 1 3.102-4.766 2.843 2.843 0 0 1 .828 3.933zm-.613-4.261a3.235 3.235 0 1 0-3.531 5.422 3.235 3.235 0 0 0 3.53-5.422zm.613 4.261a2.839 2.839 0 0 1-3.93.833 2.843 2.843 0 0 1 3.102-4.766 2.843 2.843 0 0 1 .828 3.933zm.332.215a3.235 3.235 0 1 0-4.477.945c1.497.977 3.5.551 4.477-.945zm.422.274a3.747 3.747 0 0 1-5.176 1.094 3.74 3.74 0 0 1 4.082-6.266 3.743 3.743 0 0 1 1.094 5.172zm.59-7.754a6.821 6.821 0 0 0-7.445 11.43 6.822 6.822 0 0 0 9.437-1.997c2.055-3.152 1.164-7.382-1.992-9.433zm-1.344 7.265a2.839 2.839 0 0 1-3.93.832 2.843 2.843 0 0 1 3.102-4.765 2.843 2.843 0 0 1 .828 3.933zm-.613-4.261a3.235 3.235 0 1 0-3.531 5.422 3.235 3.235 0 0 0 3.53-5.422zm.613 4.261a2.839 2.839 0 0 1-3.93.832 2.843 2.843 0 0 1 3.102-4.765 2.843 2.843 0 0 1 .828 3.933zm-.613-4.261a3.235 3.235 0 1 0-3.531 5.422 3.235 3.235 0 0 0 3.53-5.422zm.613 4.261a2.839 2.839 0 0 1-3.93.832 2.843 2.843 0 0 1 3.102-4.765 2.843 2.843 0 0 1 .828 3.933zm-.613-4.261a3.235 3.235 0 1 0-3.531 5.422 3.235 3.235 0 0 0 3.53-5.422"/><path fill="#d4d6d3" d="m210.227 339.625-2.2-1.434-.89 1.637 1.957 1.27 1.133-1.473M206.523 336.16l-.539-2.566-1.789.523.485 2.285 1.843-.242M206.355 331.094l1.434-2.2-1.637-.89-1.27 1.953 1.473 1.137M209.82 327.39l2.567-.542-.524-1.785-2.285.48.242 1.848M214.89 327.223l2.196 1.433.89-1.636-1.953-1.274-1.132 1.477M218.59 330.688l.543 2.566 1.785-.527-.48-2.282-1.848.243M218.758 335.754l-1.434 2.2 1.637.89 1.273-1.953-1.476-1.137M215.293 339.457l-2.566.543.527 1.785 2.281-.484-.242-1.844"/><path fill="#fbbb1e" d="m262.223 358.117 3.18.594 9.1-61.625-3.628-.668-8.652 61.7"/><path fill="#fbbb1e" d="m234.348 348.352 4.722-41.176 31.805-10.758s-8.652 62.367-8.652 61.7l-27.875-9.766"/><g clip-path="url(#c)"><g clip-path="url(#d)"><path fill="#fdd461" d="M262.223 358.117h8.652v-61.699h-8.652zm0 0"/></g></g><path fill="#fdd461" d="M262.223 358.125v-.008l-5.36-1.875-22.515-7.89 4.722-41.176 31.805-10.758c-.027.21-8.477 61.074-8.652 61.699v.008"/><path fill="#fff" d="M157.266 308.844c-.52-3.41-.797-6.852-1.012-10.293-.098-1.719-.14-3.446-.18-5.168-.035-1.727-.062-3.45-.011-5.176l.011-.453.442-.023c6.32-.34 12.632-.754 18.957-1.032a1056.56 1056.56 0 0 1 18.965-.793c-6.31.57-12.618 1.059-18.926 1.516-6.309.492-12.621.848-18.934 1.277l.453-.476-.023 5.148.058 5.152c.008 1.72.04 3.438.09 5.157l.11 5.164M243.508 307.781a97.914 97.914 0 0 1 5.996-2.61c2.02-.823 4.059-1.6 6.117-2.316 2.067-.703 4.137-1.394 6.242-1.98 2.102-.59 4.223-1.137 6.39-1.492l.536-.086-.098.508c-.5 2.664-1.02 5.328-1.636 7.976.23-2.71.554-5.402.906-8.093l.437.421c-2.101.5-4.183 1.086-6.261 1.704a248.374 248.374 0 0 0-6.211 1.945l-12.418 4.023"/><path fill="#f4ac11" d="m173.855 367.27-.535-10.297-.46-10.305-.794-20.606-.617-20.613-.25-10.312-.12-7.39c.034 0 .066-.005.1-.005l.384 7.383.46 10.305.793 20.605.622 20.613.25 10.313.167 10.308m-2.792-80.359-.036-2.082.11 2.078c-.024.004-.047.004-.075.004"/><path fill="#e0e1df" d="m171.078 287.746-.015-.836c.027 0 .05 0 .074-.004l.043.836c-.035 0-.067.004-.102.004"/><path fill="#f4ac11" d="M166.191 293.355c-.332 0-.668-.082-.968-.253a1.969 1.969 0 0 1-.934-1.301 1.988 1.988 0 0 1 .356-1.567 1.973 1.973 0 0 1 1.546-.761c.95 0 1.739.726 1.887 1.562a1.61 1.61 0 0 0-.773-1.066 1.593 1.593 0 0 0-.758-.192c-.168 0-.332.028-.488.075-.801.261-1.188 1.109-1.036 1.8.122.657.739 1.262 1.524 1.262.043 0 .086-.004.129-.004.41-.035.824-.242 1.101-.594.278-.351.387-.832.301-1.281.2.887-.328 1.945-1.328 2.238-.18.055-.367.082-.559.082M166.902 305.703c-.332 0-.668-.082-.968-.25a1.973 1.973 0 0 1-.934-1.305 1.95 1.95 0 0 1 .355-1.562 1.95 1.95 0 0 1 1.34-.75c.07-.012.14-.016.207-.016.95 0 1.735.73 1.887 1.563a1.603 1.603 0 0 0-.773-1.063 1.56 1.56 0 0 0-.758-.191c-.168 0-.336.023-.488.074-.805.262-1.188 1.106-1.036 1.797.118.66.739 1.262 1.52 1.262.043 0 .086 0 .133-.004a1.585 1.585 0 0 0 1.101-.594c.278-.348.387-.832.301-1.281.195.886-.328 1.945-1.328 2.242-.18.05-.367.078-.559.078M167.352 318.813c-.332 0-.668-.082-.97-.254a1.978 1.978 0 0 1-.933-1.301 1.973 1.973 0 0 1 .356-1.567 1.965 1.965 0 0 1 1.547-.761c.949 0 1.738.73 1.886 1.562a1.61 1.61 0 0 0-.773-1.066 1.593 1.593 0 0 0-1.246-.114c-.805.258-1.188 1.106-1.035 1.797.12.657.738 1.262 1.52 1.262.042 0 .085 0 .132-.004a1.6 1.6 0 0 0 1.102-.594c.277-.351.386-.832.3-1.28.2.886-.328 1.944-1.328 2.237-.18.055-.367.082-.558.082M167.8 331.922c-.331 0-.667-.082-.968-.254a1.976 1.976 0 0 1-.934-1.305 1.964 1.964 0 0 1 .356-1.562 1.958 1.958 0 0 1 1.547-.762c.949 0 1.738.73 1.887 1.563a1.601 1.601 0 0 0-.774-1.067 1.593 1.593 0 0 0-.758-.191c-.168 0-.332.027-.488.074-.8.262-1.188 1.11-1.035 1.8.12.657.738 1.262 1.52 1.262.042 0 .085-.004.132-.008a1.595 1.595 0 0 0 1.102-.59c.277-.35.386-.831.3-1.28.2.886-.328 1.945-1.328 2.238-.18.054-.367.082-.558.082M168.25 345.031c-.328 0-.668-.082-.969-.254a1.985 1.985 0 0 1-.933-1.304 1.98 1.98 0 0 1 .355-1.563 1.95 1.95 0 0 1 1.55-.762c.946 0 1.735.727 1.884 1.563a1.601 1.601 0 0 0-.774-1.066 1.55 1.55 0 0 0-.758-.192c-.167 0-.332.024-.488.074-.8.262-1.187 1.106-1.035 1.797.121.66.738 1.266 1.52 1.266a1.587 1.587 0 0 0 1.234-.598c.277-.352.387-.832.3-1.281.2.886-.327 1.941-1.327 2.238a1.895 1.895 0 0 1-.559.082M168.7 358.137a2 2 0 0 1-.97-.25 1.998 1.998 0 0 1-.933-1.305 1.98 1.98 0 0 1 .355-1.562c.332-.434.84-.7 1.34-.754.07-.008.14-.008.211-.008.945 0 1.734.726 1.887 1.558a1.608 1.608 0 0 0-.778-1.062 1.55 1.55 0 0 0-.757-.192c-.168 0-.332.024-.485.075-.804.261-1.187 1.105-1.039 1.796.121.66.739 1.262 1.52 1.262.047 0 .09 0 .133-.004a1.58 1.58 0 0 0 1.101-.59c.281-.351.39-.832.305-1.285.195.89-.328 1.945-1.332 2.242a2.03 2.03 0 0 1-.559.078"/><path fill="#fbbb1e" d="m129.438 395.543-1.66-5.477 46.878-14.207 1.66 5.477-46.879 14.207"/><path fill="#fdd461" d="m135.824 393.605-1.031-5.667 39.863-12.079 1.66 5.477-40.492 12.27"/><path fill="#fbbb1e" d="m149.32 390.617-2.578-8.097 5.457-1.735 2.574 8.098-5.453 1.734M129.055 403.566l-12.098-52.378-36.508 8.656 17.977 51.047 30.629-7.325"/><path fill="#fbbb1e" d="m137.152 400.902-8.097 2.664-12.098-52.379 11.652 2.774 8.543 46.941"/><path fill="#d59814" d="m129.055 403.566-12.098-52.378 11.652 2.773 8.543 46.941-8.097 2.664"/><path fill="#fbbb1e" d="M181.7 378.598a6.216 6.216 0 1 1-6.215-6.215 6.216 6.216 0 0 1 6.214 6.215M284.613 395.496l-46.843-14.305 1.667-5.472 46.848 14.304-1.672 5.473"/><path fill="#fdd461" d="m278.23 393.547-40.46-12.356 1.668-5.472 39.835 12.164-1.043 5.664"/><path fill="#fbbb1e" d="m264.742 390.531-5.449-1.746 2.594-8.098 5.453 1.747-2.598 8.097M284.984 403.523l12.207-52.355 36.493 8.734-18.086 51.008-30.614-7.387M276.887 400.84l8.097 2.683 12.207-52.355-11.66 2.75-8.644 46.922"/><path fill="#d59814" d="m284.984 403.523-8.097-2.683 8.644-46.922 11.66-2.75-12.207 52.355"/><path fill="#fbbb1e" d="M232.39 378.441a6.212 6.212 0 0 0 6.2 6.227 6.21 6.21 0 0 0 6.226-6.2 6.216 6.216 0 0 0-6.199-6.23 6.218 6.218 0 0 0-6.226 6.203M279.29 313.836c.147-.137 15.202-14.102 32.913-9.324 18.113 4.886 33.067 32.164 33.215 32.441l5.035-2.723c-.656-1.21-16.254-29.722-36.762-35.246-20.855-5.625-37.64 10.036-38.343 10.703l3.941 4.149"/><path fill="#fdd461" d="M345.418 336.953c-.148-.277-15.102-27.555-33.215-32.441a28.8 28.8 0 0 0-7.547-.996c-14.242 0-25.242 10.203-25.367 10.32l-3.941-4.149c.597-.566 12.761-11.917 29.172-11.917 2.933 0 6.007.363 9.171 1.214 20.508 5.524 36.106 34.036 36.762 35.246l-5.035 2.723"/><path fill="#fbbb1e" d="m338.742 364.418 10.848-5.727c-1.043-1.972-2.324-5.359-2.512-8.418-.238-3.964 1.332-5.359 3.07-6.273 3.801-2.008 6.067-1.215 7.618-.3 2.171 1.28 4.382 3.905 6.218 7.39l10.848-5.727c-2.969-5.62-6.613-9.734-10.836-12.226-4.21-2.48-11.023-4.5-19.574.015-6.668 3.52-10.07 9.864-9.582 17.864.383 6.296 3.086 11.847 3.902 13.402"/><path fill="#17272e" d="M281.574 294.727c2.352-1.625 4.758-3.153 7.172-4.668 2.41-1.528 4.86-2.985 7.309-4.442 2.46-1.437 4.925-2.875 7.425-4.242l3.754-2.05c1.27-.653 2.524-1.333 3.809-1.958-1.172.82-2.375 1.586-3.563 2.38l-3.609 2.292c-2.41 1.524-4.86 2.98-7.308 4.438-2.461 1.437-4.926 2.87-7.426 4.238-2.496 1.379-5 2.742-7.563 4.012M275.348 318.129c3.367 1.918 6.554 4.082 9.703 6.308 3.129 2.247 6.215 4.56 9.125 7.122-3.367-1.918-6.559-4.082-9.703-6.309-3.13-2.25-6.215-4.563-9.125-7.121M280.875 315.25c2.598.79 5.156 1.68 7.707 2.586 2.559.898 5.082 1.867 7.613 2.836 2.52.992 5.035 1.988 7.528 3.055l3.73 1.601c1.234.567 2.477 1.106 3.695 1.7-1.3-.383-2.582-.829-3.87-1.243l-3.837-1.344c-2.554-.894-5.082-1.867-7.609-2.836-2.52-.996-5.035-1.988-7.527-3.054-2.493-1.055-4.98-2.13-7.43-3.301M288.258 296.922c2.488-.649 4.996-1.188 7.508-1.707 2.507-.535 5.035-.992 7.554-1.45 2.532-.43 5.059-.863 7.598-1.218l3.812-.527c1.278-.141 2.547-.317 3.833-.426-1.247.336-2.5.605-3.747.91l-3.765.8c-2.508.536-5.031.993-7.555 1.446-2.527.434-5.055.863-7.598 1.219-2.539.363-5.082.71-7.64.953M228.246 312.492a27.032 27.032 0 0 1 1.98-5.875c.88-1.879 1.958-3.68 3.305-5.281 1.356-1.582 3.02-2.98 5.028-3.754 2.004-.746 4.296-.742 6.308.063 2.035.792 3.64 2.503 4.504 4.468.45.98.734 2.035.848 3.114.101 1.074.058 2.191-.371 3.265-.215.528-.559 1.063-1.106 1.414-.262.188-.586.29-.902.34a2.08 2.08 0 0 1-.996-.094c-.668-.285-1.004-.824-1.29-1.308a7.612 7.612 0 0 1-.593-1.543c-.563-2.086-.617-4.211-.52-6.309.297-4.18 1.399-8.363 3.649-11.96 1.14-1.778 2.562-3.415 4.336-4.61 1.75-1.203 3.8-2.031 5.89-2.274 1.032-.25 2.094-.226 3.145-.277.527-.055 1.05.07 1.574.102.524.066 1.055.058 1.563.21 2.078.372 4.03 1.208 5.855 2.215 1.813 1.043 3.426 2.387 4.902 3.844 1.461 1.469 2.79 3.078 3.856 4.852-2.363-3.375-5.41-6.305-9-8.27-1.805-.937-3.715-1.707-5.727-2.02-.492-.136-1.004-.113-1.507-.171-.504-.012-1.008-.129-1.512-.063-1.012.075-2.027.07-3.012.336-2.016.285-3.887 1.094-5.531 2.223-1.652 1.133-2.988 2.687-4.063 4.387-2.12 3.437-3.16 7.5-3.422 11.539-.113 2.015-.058 4.078.446 5.992.238.918.672 1.95 1.304 2.238.079.008.133.051.231.055.098-.008.203.012.297-.012.187-.031.375-.082.531-.195.328-.207.59-.57.766-.992.347-.848.414-1.856.324-2.828a9.28 9.28 0 0 0-.75-2.848c-.793-1.797-2.195-3.352-4.012-4.113a8.155 8.155 0 0 0-5.8-.176c-1.887.676-3.516 1.976-4.876 3.484-2.722 3.047-4.558 6.864-5.652 10.832M135.844 338.406c.965-1.816 2.383-3.39 4.043-4.636 1.652-1.243 3.554-2.208 5.597-2.68 2.036-.488 4.22-.496 6.254.12 2.035.61 3.871 1.806 5.336 3.325 1.48 1.52 2.586 3.367 3.344 5.328.746 1.969 1.191 4.075 1.035 6.23-.11 1.06-.324 2.204-1.16 3.122a2.408 2.408 0 0 1-1.688.758c-.601-.004-1.168-.094-1.722-.387a2.853 2.853 0 0 1-1.238-1.32c-.254-.547-.352-1.121-.375-1.68-.043-1.121.199-2.184.53-3.195.669-2.028 1.77-3.856 3.06-5.508a22.24 22.24 0 0 1 4.527-4.352c3.386-2.46 7.703-3.828 11.914-3.277 2.078.281 4.14.883 5.96 1.941 1.833 1.024 3.427 2.45 4.723 4.075 1.293 1.632 2.305 3.468 3.082 5.378.778 1.915 1.352 3.91 1.633 5.95-.84-4.008-2.484-7.899-5.11-11.004-1.3-1.551-2.866-2.883-4.648-3.824-1.761-.973-3.738-1.497-5.73-1.72-4-.433-8.059.84-11.285 3.227-3.223 2.371-5.86 5.684-7.192 9.426-.316.93-.535 1.906-.504 2.848.02.933.348 1.828 1.098 2.207.352.203.832.285 1.25.289a1.487 1.487 0 0 0 1.055-.473c.582-.61.832-1.605.922-2.558.156-1.954-.246-3.973-.946-5.844-.71-1.871-1.761-3.617-3.12-5.078-1.356-1.457-3.067-2.594-4.962-3.215-1.886-.629-3.957-.68-5.925-.262-3.938.836-7.586 3.297-9.758 6.79M89.578 96.91c-.113-4.113-.984-8.258-2.902-11.867-.957-1.785-2.23-3.438-3.899-4.547-1.668-1.082-3.738-1.527-5.675-1.21-1.95.304-3.684 1.48-4.88 3.034a9.207 9.207 0 0 0-1.41 2.586c-.316.922-.496 1.918-.359 2.824.07.454.234.868.504 1.149.129.148.297.242.473.316.086.043.191.051.285.078.094.024.156-.007.238.004.684-.129 1.348-1.027 1.8-1.859.946-1.738 1.49-3.73 1.86-5.719.711-3.98.672-8.172-.57-12.02-.633-1.906-1.559-3.734-2.895-5.226-1.328-1.488-2.949-2.723-4.84-3.48-.894-.493-1.882-.73-2.843-1.043-.477-.188-.992-.196-1.485-.301-.503-.067-.996-.211-1.507-.195-2.024-.176-4.063.117-6.043.597-3.953 1.047-7.61 3.164-10.711 5.88 1.457-1.466 3.133-2.712 4.902-3.79 1.781-1.062 3.668-1.98 5.68-2.562 2.008-.547 4.105-.891 6.215-.754.527-.028 1.043.11 1.566.168.516.097 1.055.097 1.55.277 1.009.3 2.048.531 2.99 1.02 1.972.734 3.765 2.027 5.175 3.613 1.437 1.586 2.43 3.515 3.11 5.512 1.331 4.03 1.398 8.355.69 12.488-.406 2.058-.968 4.11-2.011 6-.254.472-.57.93-.941 1.355-.395.403-.848.848-1.567.961a2.056 2.056 0 0 1-.988-.144 2.116 2.116 0 0 1-.797-.543c-.445-.477-.652-1.075-.738-1.64-.157-1.142.066-2.24.422-3.259.37-1.02.894-1.972 1.566-2.824 1.309-1.7 3.273-2.977 5.437-3.262 2.149-.3 4.375.243 6.145 1.446 1.766 1.23 3.047 2.984 3.984 4.847.93 1.875 1.543 3.883 1.95 5.914.406 2.036.593 4.114.52 6.176M310.395 149.074c-4.028-.847-8.258-.969-12.215.055-1.965.516-3.868 1.363-5.332 2.73-1.442 1.368-2.36 3.278-2.504 5.239-.156 1.965.582 3.922 1.816 5.453a9.213 9.213 0 0 0 2.184 1.972c.82.524 1.746.93 2.664 1.008.453.035.894-.027 1.23-.222.172-.09.305-.23.418-.387l.145-.258.058-.23c.036-.696-.683-1.551-1.386-2.188-1.473-1.324-3.282-2.316-5.125-3.14-3.707-1.622-7.793-2.56-11.825-2.25-2 .171-3.992.644-5.757 1.593-1.758.946-3.336 2.235-4.512 3.899-.691.754-1.149 1.656-1.68 2.52-.293.417-.422.917-.636 1.374-.184.473-.442.918-.543 1.418-.645 1.93-.836 3.98-.832 6.016.097 4.09 1.304 8.14 3.218 11.789-1.086-1.762-1.902-3.68-2.543-5.652-.617-1.977-1.066-4.028-1.164-6.122-.058-2.082.094-4.199.715-6.218.102-.52.352-.989.531-1.485.215-.476.34-1 .633-1.445.527-.91.992-1.863 1.688-2.664 1.172-1.75 2.847-3.191 4.722-4.191 1.875-1.028 3.985-1.543 6.086-1.739 4.23-.351 8.45.59 12.301 2.242 1.91.875 3.773 1.899 5.367 3.356.403.36.77.773 1.102 1.23.297.48.62 1.024.566 1.75a2.055 2.055 0 0 1-.37.93c-.188.258-.43.496-.716.648-.566.32-1.195.38-1.765.333-1.149-.114-2.164-.586-3.075-1.172a10.09 10.09 0 0 1-2.375-2.18c-1.351-1.668-2.132-3.879-1.906-6.05a8.87 8.87 0 0 1 2.84-5.638c1.605-1.425 3.613-2.265 5.645-2.742 2.039-.468 4.132-.597 6.207-.515 2.07.082 4.132.382 6.125.933M248.484 84.375c-.683-2.367-.773-4.902-.39-7.352.383-2.445 1.215-4.851 2.566-6.96 1.336-2.11 3.195-3.934 5.445-5.098 2.247-1.172 4.805-1.68 7.325-1.606 2.523.07 5.007.723 7.289 1.766 2.277 1.059 4.414 2.484 6.07 4.45.79.987 1.55 2.14 1.598 3.59a2.81 2.81 0 0 1-.785 1.995c-.508.488-1.063.883-1.762 1.086-.688.211-1.453.156-2.11-.094-.656-.246-1.21-.652-1.695-1.101-.957-.914-1.637-2.024-2.195-3.156-1.113-2.29-1.7-4.762-1.985-7.25a26.611 26.611 0 0 1 .23-7.493c.837-4.925 3.376-9.687 7.423-12.734 2.004-1.496 4.262-2.707 6.695-3.328 2.422-.66 4.969-.778 7.438-.477 2.468.309 4.87 1.024 7.14 2.004 2.27.98 4.434 2.2 6.39 3.7-4.062-2.747-8.73-4.715-13.589-5.196-2.418-.246-4.883-.082-7.203.602-2.332.64-4.477 1.851-6.379 3.328-1.879 1.504-3.48 3.355-4.648 5.46-1.18 2.098-1.95 4.423-2.36 6.801-.777 4.747-.273 9.805 1.735 14.153.515 1.066 1.148 2.094 1.972 2.887.813.793 1.88 1.308 2.88.992.491-.13.98-.469 1.355-.824.355-.364.539-.832.535-1.352-.016-1.05-.649-2.121-1.38-3.02-1.515-1.82-3.562-3.218-5.734-4.234-2.183-1.016-4.554-1.633-6.957-1.742-2.394-.11-4.824.351-6.972 1.418-2.156 1.055-3.977 2.754-5.313 4.765-2.672 4.036-3.715 9.215-2.629 14.02"/><path fill="#33525e" d="M134.781 343.805a3.733 3.733 0 1 1-7.12-2.246 3.734 3.734 0 1 1 7.121 2.246zm-2.281-5.18a4.254 4.254 0 0 0-5.336 2.777 4.255 4.255 0 0 0 2.781 5.336 4.246 4.246 0 0 0 5.328-2.777 4.254 4.254 0 0 0-2.773-5.336zm2.281 5.18a3.733 3.733 0 1 1-7.12-2.246 3.734 3.734 0 1 1 7.121 2.246zm-2.281-5.18a4.254 4.254 0 0 0-5.336 2.777 4.255 4.255 0 0 0 2.781 5.336 4.246 4.246 0 0 0 5.328-2.777 4.254 4.254 0 0 0-2.773-5.336zm2.281 5.18a3.733 3.733 0 1 1-7.12-2.246 3.734 3.734 0 1 1 7.121 2.246zm.492.156a4.254 4.254 0 0 0-2.773-5.336 4.254 4.254 0 0 0-5.336 2.777 4.255 4.255 0 0 0 2.781 5.336 4.246 4.246 0 0 0 5.328-2.777zm.633.195a4.919 4.919 0 0 1-6.16 3.215 4.92 4.92 0 0 1-3.21-6.164 4.917 4.917 0 0 1 6.163-3.207 4.91 4.91 0 0 1 3.207 6.156zm-1.988-10.023a8.967 8.967 0 0 0-11.246 5.855c-1.484 4.723 1.133 9.754 5.855 11.242 4.72 1.485 9.754-1.136 11.243-5.855 1.488-4.719-1.133-9.754-5.852-11.242zm.863 9.672a3.733 3.733 0 1 1-7.12-2.246 3.734 3.734 0 1 1 7.121 2.246zm-2.281-5.18a4.254 4.254 0 0 0-5.336 2.777 4.255 4.255 0 0 0 2.781 5.336 4.246 4.246 0 0 0 5.328-2.777 4.254 4.254 0 0 0-2.773-5.336zm2.281 5.18a3.733 3.733 0 1 1-7.12-2.246 3.734 3.734 0 1 1 7.121 2.246zm-2.281-5.18a4.254 4.254 0 0 0-5.336 2.777 4.255 4.255 0 0 0 2.781 5.336 4.246 4.246 0 0 0 5.328-2.777 4.254 4.254 0 0 0-2.773-5.336zm2.281 5.18a3.733 3.733 0 1 1-7.12-2.246 3.734 3.734 0 1 1 7.121 2.246zm-2.281-5.18a4.254 4.254 0 0 0-5.336 2.777 4.255 4.255 0 0 0 2.781 5.336 4.246 4.246 0 0 0 5.328-2.777 4.254 4.254 0 0 0-2.773-5.336"/><path fill="#33525e" d="m130.281 351.395-3.285-1.04-.55 2.387 2.921.922.914-2.27M124.375 348.313l-1.59-3.055-2.074 1.297 1.414 2.718 2.25-.96M122.375 341.96l1.035-3.288-2.383-.547-.922 2.922 2.27.914M125.453 336.055l3.059-1.594-1.297-2.074-2.719 1.414.957 2.254M131.809 334.055l3.285 1.035.554-2.383-2.925-.922-.914 2.27M137.715 337.133l1.594 3.055 2.074-1.293-1.414-2.72-2.254.958M139.715 343.484l-1.035 3.29 2.383.55.921-2.922-2.27-.918M136.637 349.395l-3.055 1.59 1.293 2.074 2.719-1.414-.957-2.25"/><path fill="#17272e" d="M292.438 305.703a6.395 6.395 0 0 1-8.95 1.324 6.39 6.39 0 0 1-1.324-8.949 6.398 6.398 0 0 1 10.274 7.625zm5.863 4.352c4.508-6.075 3.234-14.657-2.836-19.164-6.078-4.508-14.656-3.239-19.164 2.836-4.512 6.074-3.239 14.656 2.836 19.164 6.074 4.507 14.652 3.238 19.164-2.836"/><path fill="#17272e" d="m281.59 314.004-4.23-3.14-1.989 3.167 3.762 2.793 2.457-2.82M274.598 306.605l-.774-5.21-3.644.832.683 4.636 3.735-.258M274.883 296.426l3.14-4.23-3.168-1.989-2.793 3.762 2.82 2.457M282.281 289.434l5.211-.774-.832-3.644-4.637.683.258 3.735M292.46 289.719l4.231 3.14 1.989-3.168-3.762-2.793-2.457 2.82M299.453 297.121l.774 5.211 3.644-.836-.683-4.633-3.735.258M299.168 307.297l-3.14 4.23 3.167 1.989 2.793-3.762-2.82-2.457M291.766 314.293l-5.207.77.832 3.648 4.632-.688-.257-3.73M287.91 300.668a1.485 1.485 0 1 1-1.768 2.387 1.485 1.485 0 0 1 1.768-2.387zm-5.515 1.879 2.91 3.672 4.633-.688 1.718-4.355-2.906-3.668-4.637.683-1.718 4.356M310.566 47.836a3.266 3.266 0 1 1-6.23-1.965 3.267 3.267 0 0 1 6.23 1.965zm-1.996-4.531a3.723 3.723 0 0 0-4.668 2.43 3.715 3.715 0 0 0 2.434 4.667 3.721 3.721 0 0 0 2.234-7.098zm1.996 4.53a3.266 3.266 0 1 1-6.23-1.964 3.267 3.267 0 0 1 6.23 1.965zm-1.996-4.53a3.723 3.723 0 0 0-4.668 2.43 3.715 3.715 0 0 0 2.434 4.667 3.721 3.721 0 0 0 2.234-7.098zm1.996 4.53a3.266 3.266 0 1 1-6.23-1.964 3.267 3.267 0 0 1 6.23 1.965zm.43.138a3.721 3.721 0 0 0-2.426-4.668 3.723 3.723 0 0 0-4.668 2.43 3.715 3.715 0 0 0 2.434 4.667 3.714 3.714 0 0 0 4.66-2.43zm.555.172a4.304 4.304 0 0 1-5.39 2.812 4.305 4.305 0 0 1-2.81-5.394 4.303 4.303 0 0 1 5.391-2.81 4.305 4.305 0 0 1 2.809 5.392zm-1.742-8.77a7.839 7.839 0 0 0-9.836 5.121 7.844 7.844 0 0 0 5.12 9.84 7.843 7.843 0 0 0 4.715-14.96zm.757 8.46a3.266 3.266 0 1 1-6.23-1.964 3.267 3.267 0 0 1 6.23 1.965zm-1.996-4.53a3.723 3.723 0 0 0-4.668 2.43 3.715 3.715 0 0 0 2.434 4.667 3.721 3.721 0 0 0 2.234-7.098zm1.996 4.53a3.266 3.266 0 1 1-6.23-1.964 3.267 3.267 0 0 1 6.23 1.965zm-1.996-4.53a3.723 3.723 0 0 0-4.668 2.43 3.715 3.715 0 0 0 2.434 4.667 3.721 3.721 0 0 0 2.234-7.098zm1.996 4.53a3.266 3.266 0 1 1-6.23-1.964 3.267 3.267 0 0 1 6.23 1.965zm-1.996-4.53a3.723 3.723 0 0 0-4.668 2.43 3.715 3.715 0 0 0 2.434 4.667 3.721 3.721 0 0 0 2.234-7.098"/><path fill="#17272e" d="m306.629 54.477-2.875-.907-.484 2.086 2.558.809.8-1.988M301.46 51.781l-1.394-2.672-1.816 1.133 1.238 2.38 1.973-.84M299.71 46.223l.907-2.875-2.086-.485-.804 2.559 1.984.8M302.402 41.055l2.676-1.395-1.133-1.816-2.379 1.242.836 1.969M307.965 39.305l2.875.906.48-2.086-2.554-.809-.801 1.989M313.133 41.996l1.39 2.676 1.82-1.133-1.238-2.379-1.972.836M314.883 47.559l-.906 2.875 2.086.48.804-2.555-1.984-.8M312.191 52.727l-2.675 1.39 1.132 1.82 2.38-1.242-.837-1.968M272.352 190.7a3.267 3.267 0 1 1-6.234-1.961 3.267 3.267 0 0 1 6.234 1.96zm-1.997-4.528a3.717 3.717 0 0 0-4.667 2.43 3.719 3.719 0 1 0 7.093 2.234 3.719 3.719 0 0 0-2.426-4.664zm1.997 4.527a3.267 3.267 0 1 1-6.234-1.96 3.267 3.267 0 0 1 6.234 1.96zm-1.997-4.527a3.717 3.717 0 0 0-4.667 2.43 3.719 3.719 0 1 0 7.093 2.234 3.719 3.719 0 0 0-2.426-4.664zm1.997 4.527a3.267 3.267 0 1 1-6.234-1.96 3.267 3.267 0 0 1 6.234 1.96zm.43.137a3.719 3.719 0 1 0-7.094-2.234 3.719 3.719 0 1 0 7.093 2.234zm.554.176a4.308 4.308 0 0 1-5.395 2.808 4.3 4.3 0 0 1 2.586-8.199 4.305 4.305 0 0 1 2.809 5.39zm-1.742-8.774a7.842 7.842 0 1 0 5.121 9.836 7.843 7.843 0 0 0-5.121-9.836zm.758 8.461a3.267 3.267 0 1 1-6.234-1.96 3.267 3.267 0 0 1 6.234 1.96zm-1.997-4.527a3.717 3.717 0 0 0-4.667 2.43 3.719 3.719 0 1 0 7.093 2.234 3.719 3.719 0 0 0-2.426-4.664zm1.997 4.527a3.267 3.267 0 1 1-6.234-1.96 3.267 3.267 0 0 1 6.234 1.96zm-1.997-4.527a3.717 3.717 0 0 0-4.667 2.43 3.719 3.719 0 1 0 7.093 2.234 3.719 3.719 0 0 0-2.426-4.664zm1.997 4.527a3.267 3.267 0 1 1-6.234-1.96 3.267 3.267 0 0 1 6.234 1.96zm-1.997-4.527a3.717 3.717 0 0 0-4.667 2.43 3.719 3.719 0 1 0 7.093 2.234 3.719 3.719 0 0 0-2.426-4.664"/><path fill="#17272e" d="m268.414 197.344-2.879-.906-.48 2.082 2.558.808.801-1.984M263.242 194.648l-1.39-2.675-1.817 1.132 1.238 2.38 1.97-.837M261.492 189.09l.906-2.88-2.086-.48-.804 2.555 1.984.805M264.188 183.918l2.675-1.39-1.133-1.817-2.378 1.238.835 1.969M269.746 182.168l2.879.906.48-2.086-2.554-.804-.805 1.984M274.918 184.863l1.39 2.676 1.817-1.137-1.238-2.379-1.969.84M276.668 190.422l-.906 2.879 2.086.48.804-2.558-1.984-.801M273.973 195.594l-2.672 1.39 1.133 1.817 2.379-1.238-.84-1.97M45.54 72.21a5.504 5.504 0 0 1-6.657 4.048 5.504 5.504 0 0 1-4.047-6.656 5.507 5.507 0 0 1 6.656-4.047 5.507 5.507 0 0 1 4.047 6.656zm6.108 1.49c1.54-6.329-2.34-12.712-8.668-14.255-6.332-1.543-12.71 2.34-14.253 8.668-1.543 6.328 2.34 12.711 8.668 14.254 6.328 1.543 12.71-2.34 14.253-8.668"/><path fill="#17272e" d="m39.715 82.43-4.406-1.075-.52 3.176 3.922.957 1.004-3.058M31.688 78.898l-2.356-3.875-2.613 1.883 2.097 3.45 2.872-1.458M28.508 70.73l1.074-4.41-3.18-.515-.953 3.922 3.059 1.003M32.035 62.703l3.875-2.355-1.883-2.614-3.445 2.094 1.453 2.875M40.207 59.523l4.406 1.075.516-3.18-3.918-.953-1.004 3.058M48.23 63.05l2.36 3.876 2.613-1.883-2.098-3.445-2.875 1.453M51.414 71.223l-1.074 4.406 3.18.516.953-3.918-3.059-1.004M47.883 79.246l-3.875 2.36 1.883 2.613 3.449-2.098-1.457-2.875M40.262 69.734a1.279 1.279 0 1 1-.603 2.486 1.279 1.279 0 0 1 .603-2.486zm-3.746 3.336 3.535 1.938 3.445-2.098-.094-4.027-3.53-1.938-3.45 2.094.094 4.031"/><path fill="#fff" d="M318.215 195.645c-2.692-4.098-4.2-8.704-4.2-13.575 0-17.195 18.883-31.14 42.16-31.14 23.278 0 42.145 13.945 42.145 31.14 0 17.196-18.867 31.137-42.144 31.137-11.29 0-21.52-3.27-29.082-8.613l-14.524 3.691 5.645-12.64"/><path fill="#17272e" d="m318.215 195.645-5.543 12.683-.125-.148 14.492-3.809.098-.027.09.062c7.476 5.164 16.496 7.848 25.523 8.332 4.523.282 9.074-.09 13.52-.894 4.437-.824 8.812-2.145 12.855-4.16 4.047-1.996 7.816-4.586 10.945-7.817 3.125-3.215 5.598-7.11 6.844-11.41 1.29-4.289 1.164-8.945-.164-13.195-1.32-4.274-3.848-8.125-7.012-11.297-3.176-3.188-6.968-5.73-11.035-7.68-1.035-.445-2.043-.965-3.101-1.351l-3.192-1.137-3.273-.89c-1.09-.294-2.215-.446-3.32-.68-4.458-.754-9-1.028-13.52-.739-4.516.32-8.992 1.141-13.3 2.535-4.31 1.387-8.438 3.38-12.11 6.028-3.672 2.633-6.91 5.926-9.242 9.805-2.375 3.867-3.563 8.41-3.508 12.949.093 4.547 1.597 9.015 4.078 12.84zm0 0c-2.535-3.782-4.13-8.247-4.293-12.836-.125-4.575 1-9.207 3.351-13.168 2.297-3.993 5.575-7.356 9.274-10.059 3.703-2.723 7.875-4.777 12.226-6.223 4.356-1.453 8.891-2.328 13.47-2.691 4.581-.336 9.194-.05 13.726.695 1.125.23 2.265.387 3.379.68l3.328.898 3.254 1.149c1.082.39 2.11.918 3.168 1.367 4.152 1.977 8.043 4.563 11.316 7.832 3.266 3.254 5.899 7.23 7.29 11.68 1.386 4.43 1.487 9.297.14 13.754-1.317 4.472-3.887 8.492-7.11 11.789-3.226 3.308-7.09 5.941-11.222 7.965-4.13 2.043-8.578 3.375-13.09 4.195-4.524.773-9.137 1.105-13.715.785-4.574-.289-9.125-1.129-13.48-2.566-4.352-1.43-8.54-3.434-12.262-6.114l.183.036-14.55 3.578-.22.054.095-.207 5.742-12.593"/><path fill="#17272e" d="M334.488 187.168v2.316h-9.433v-13.59h9.261v2.317h-6.62v3.273h5.718v2.145h-5.719v3.539h6.793M339.195 182.613h3.313c.242 0 .469-.058.68-.172.21-.117.39-.27.542-.468.157-.2.278-.43.364-.7.09-.27.136-.554.136-.863a2.39 2.39 0 0 0-.566-1.574 1.81 1.81 0 0 0-.594-.461 1.526 1.526 0 0 0-.68-.164h-3.195zm-2.64 6.871v-13.59h6.007c.625 0 1.204.133 1.735.395.527.262.984.606 1.367 1.031.383.43.684.914.899 1.457a4.32 4.32 0 0 1 .328 1.633c0 .883-.223 1.684-.66 2.403a3.802 3.802 0 0 1-1.793 1.562l3.101 5.11h-2.965l-2.773-4.555h-2.606v4.554h-2.64M351.922 182.613h3.308c.247 0 .47-.058.68-.172.211-.117.395-.27.547-.468.152-.2.273-.43.363-.7a2.7 2.7 0 0 0 .133-.863c0-.316-.05-.61-.152-.879a2.273 2.273 0 0 0-.41-.695 1.81 1.81 0 0 0-.594-.461 1.526 1.526 0 0 0-.68-.164h-3.195zm-2.64 6.871v-13.59h6.007c.625 0 1.203.133 1.734.395.528.262.985.606 1.368 1.031.382.43.68.914.898 1.457.219.54.324 1.086.324 1.633 0 .883-.218 1.684-.66 2.403a3.775 3.775 0 0 1-1.789 1.562l3.102 5.11H357.3l-2.778-4.555h-2.601v4.554h-2.64M363.863 182.688c0 .59.09 1.156.27 1.707.176.546.433 1.03.773 1.453a3.82 3.82 0 0 0 1.242 1.011c.493.258 1.051.383 1.676.383.64 0 1.203-.129 1.696-.39.492-.262.906-.61 1.242-1.043.34-.434.593-.922.765-1.465a5.432 5.432 0 0 0-.02-3.36 4.727 4.727 0 0 0-.78-1.453 3.763 3.763 0 0 0-1.247-1.004 3.6 3.6 0 0 0-1.656-.375c-.637 0-1.207.133-1.703.395s-.91.605-1.242 1.031c-.332.43-.586.914-.758 1.457a5.445 5.445 0 0 0-.258 1.653zm3.942 6.89c-.993 0-1.899-.191-2.707-.582a6.662 6.662 0 0 1-2.086-1.55 7.075 7.075 0 0 1-1.352-2.212 7.077 7.077 0 0 1-.476-2.546c0-.903.171-1.77.507-2.602a7.129 7.129 0 0 1 1.399-2.2 6.669 6.669 0 0 1 2.113-1.523 6.296 6.296 0 0 1 2.66-.562c.985 0 1.88.199 2.688.601.812.403 1.504.93 2.078 1.578a7.295 7.295 0 0 1 1.34 2.223c.316.828.476 1.668.476 2.524a6.87 6.87 0 0 1-.496 2.593 7.075 7.075 0 0 1-1.379 2.184 6.698 6.698 0 0 1-2.105 1.512 6.296 6.296 0 0 1-2.66.562M379.117 182.613h3.309c.242 0 .469-.058.68-.172.21-.117.39-.27.546-.468.153-.2.274-.43.364-.7a2.7 2.7 0 0 0 .132-.863c0-.316-.05-.61-.152-.879a2.273 2.273 0 0 0-.41-.695 1.85 1.85 0 0 0-.594-.461 1.539 1.539 0 0 0-.68-.164h-3.195zm-2.64 6.871v-13.59h6.007c.625 0 1.204.133 1.73.395.532.262.985.606 1.372 1.031.383.43.68.914.898 1.457a4.39 4.39 0 0 1 .325 1.633c0 .883-.22 1.684-.66 2.403a3.775 3.775 0 0 1-1.79 1.562l3.102 5.11h-2.969l-2.773-4.555h-2.602v4.554h-2.64"/></svg>